<?xml version="1.0" standalone="no"?>
<!DOCTYPE svg PUBLIC "-//W3C//DTD SVG 20010904//EN"
 "http://www.w3.org/TR/2001/REC-SVG-20010904/DTD/svg10.dtd">
<svg version="1.0" xmlns="http://www.w3.org/2000/svg"
 width="300.000000pt" height="300.000000pt" viewBox="0 0 300.000000 300.000000"
 preserveAspectRatio="xMidYMid meet">
<metadata>
Created by potrace 1.10, written by Peter Selinger 2001-2011
</metadata>
<g transform="translate(0.000000,300.000000) scale(0.100000,-0.100000)"
fill="#000000" stroke="none">
<path d="M1478 2308 c18 -18 14 -30 -8 -23 -16 5 -20 2 -20 -15 0 -17 4 -20
20 -15 24 7 26 -7 5 -25 -11 -9 -12 -16 -4 -26 8 -10 5 -14 -18 -19 -15 -3
-41 -12 -58 -20 -16 -8 -43 -15 -59 -17 -17 -2 -37 -13 -48 -29 -18 -24 -18
-27 -2 -75 9 -27 32 -70 50 -95 19 -26 34 -55 34 -65 0 -18 10 -19 125 -19
l126 0 6 25 c3 14 17 39 31 55 82 98 80 205 -4 205 -16 0 -39 6 -50 14 -11 8
-33 16 -49 18 -24 2 -29 7 -27 25 2 12 -2 24 -8 28 -18 11 -11 27 10 20 16 -5
20 -2 20 15 0 17 -4 20 -21 15 -18 -6 -20 -4 -14 14 5 18 2 21 -21 21 -22 0
-25 -3 -16 -12z m-12 -195 c0 -27 3 -72 7 -100 6 -45 5 -53 -8 -53 -29 0 -63
127 -44 163 12 21 28 37 40 37 3 0 5 -21 5 -47z m99 30 c31 -31 4 -183 -32
-183 -11 0 -13 9 -8 38 3 21 6 66 7 100 1 65 6 72 33 45z m-205 -76 c10 -32
25 -68 34 -82 20 -30 21 -46 3 -39 -31 12 -82 130 -66 155 5 8 3 17 -4 22 -9
6 -8 8 2 5 7 -2 21 -30 31 -61z m314 57 c-6 -2 -8 -18 -6 -34 5 -34 -39 -135
-63 -144 -21 -8 -19 7 10 64 14 27 25 63 25 79 0 27 11 39 35 39 6 0 5 -2 -1
-4z"/>
<path d="M1135 1988 c-32 -17 -75 -61 -75 -76 0 -8 -6 -12 -15 -8 -9 3 -21 -4
-31 -20 -25 -37 -14 -37 33 -1 23 18 55 39 71 49 32 17 58 53 44 62 -4 2 -16
0 -27 -6z"/>
<path d="M1842 1968 c15 -24 74 -68 89 -68 5 0 9 6 9 14 0 20 -67 76 -92 76
-19 0 -19 -2 -6 -22z"/>
<path d="M956 1921 c-9 -14 12 -81 25 -81 14 0 11 54 -4 75 -10 13 -16 15 -21
6z"/>
<path d="M2021 1912 c-6 -11 -11 -35 -11 -53 0 -26 2 -29 14 -20 8 7 18 26 21
43 9 38 -9 59 -24 30z"/>
<path d="M1956 1901 c-9 -14 -1 -28 25 -41 24 -13 24 -2 0 29 -12 16 -21 20
-25 12z"/>
<path d="M1290 1882 c0 -7 -13 -9 -34 -5 -25 4 -39 0 -54 -13 -46 -45 -48 -78
-8 -122 20 -23 20 -24 3 -54 -27 -47 -12 -45 22 3 36 50 40 95 11 132 -23 28
-16 39 16 27 14 -5 28 -27 40 -60 41 -115 145 -137 183 -39 14 38 0 46 -15 10
-14 -34 -53 -49 -92 -35 -18 7 -30 25 -48 74 -29 78 -29 82 -4 51 11 -13 20
-35 20 -50 0 -29 25 -71 42 -71 6 0 5 7 -3 16 -8 9 -18 39 -24 67 -7 33 -17
55 -32 65 -14 8 -23 10 -23 4z m-60 -125 c0 -16 -6 -10 -20 22 -26 56 -26 75
0 33 11 -18 20 -42 20 -55z"/>
<path d="M1686 1877 c-10 -7 -22 -35 -27 -62 -5 -27 -16 -57 -26 -67 -9 -10
-12 -18 -6 -18 18 0 40 35 48 75 3 22 16 50 28 63 22 24 12 30 -17 9z"/>
<path d="M1717 1863 c-8 -10 -20 -38 -27 -63 -15 -58 -36 -80 -75 -80 -32 0
-56 19 -69 54 -9 27 -20 12 -12 -18 22 -90 131 -85 175 8 11 25 21 50 21 55 0
10 39 41 52 41 15 0 8 -27 -12 -45 -28 -26 -25 -64 11 -119 34 -51 50 -56 25
-8 -14 28 -14 31 9 63 32 42 31 70 -1 103 -31 30 -74 34 -97 9z m84 -72 c-6
-11 -11 -30 -11 -43 -1 -20 -2 -21 -11 -6 -7 12 -4 29 8 58 10 23 19 34 21 26
2 -8 -2 -24 -7 -35z"/>
<path d="M1034 1850 l-39 -18 36 -1 c40 -1 82 22 57 31 -8 4 -32 -2 -54 -12z"/>
<path d="M1910 1845 c19 -19 80 -32 80 -17 0 16 -34 32 -66 32 -25 0 -27 -2
-14 -15z"/>
<path d="M880 1816 c0 -17 38 -66 51 -66 13 0 1 40 -19 63 -18 20 -32 22 -32
3z"/>
<path d="M962 1813 c-6 -10 -9 -31 -9 -46 2 -22 6 -26 22 -21 29 9 65 33 65
44 0 15 -23 12 -46 -5 -28 -21 -40 -18 -19 5 13 15 15 24 8 31 -8 8 -14 6 -21
-8z"/>
<path d="M2092 1817 c-15 -18 -33 -67 -24 -67 28 1 71 80 43 80 -5 0 -13 -6
-19 -13z"/>
<path d="M2010 1813 c1 -14 30 -47 36 -41 10 11 -7 48 -22 48 -8 0 -14 -3 -14
-7z"/>
<path d="M1960 1792 c0 -15 34 -40 65 -47 l30 -7 -25 25 c-26 26 -70 45 -70
29z"/>
<path d="M840 1722 c0 -24 28 -62 46 -62 19 0 18 9 -6 48 -22 35 -40 42 -40
14z"/>
<path d="M906 1718 c-10 -39 -6 -44 14 -19 23 27 25 41 6 41 -7 0 -16 -10 -20
-22z"/>
<path d="M2065 1731 c-4 -8 1 -21 14 -34 16 -17 21 -18 21 -6 0 8 -6 23 -13
34 -11 13 -16 15 -22 6z"/>
<path d="M2120 1708 c-26 -44 -27 -62 0 -48 22 12 40 41 40 64 0 26 -19 18
-40 -16z"/>
<path d="M930 1674 c-22 -20 -40 -32 -41 -28 0 5 -4 -2 -10 -14 -5 -14 -5 -30
0 -39 7 -13 11 -8 20 20 9 27 19 37 40 42 16 3 39 17 51 31 l23 24 -21 0 c-12
0 -40 -16 -62 -36z"/>
<path d="M1990 1700 c0 -14 60 -50 84 -50 16 0 16 2 5 16 -14 17 -62 44 -79
44 -5 0 -10 -5 -10 -10z"/>
<path d="M800 1639 c0 -26 39 -78 64 -85 29 -7 78 17 101 48 31 46 -32 27 -69
-20 l-19 -24 -16 32 c-18 38 -61 72 -61 49z"/>
<path d="M2100 1609 c9 -29 8 -30 -8 -16 -21 19 -72 39 -72 29 0 -19 60 -63
92 -68 30 -5 38 -2 61 26 39 45 35 79 -5 48 -9 -7 -23 -26 -32 -43 -16 -29
-16 -29 -15 -5 2 47 -1 60 -15 60 -12 0 -13 -7 -6 -31z"/>
<path d="M220 1398 l0 -125 58 4 c92 5 136 51 128 133 -6 61 -48 100 -110 100
-25 0 -51 3 -60 6 -14 5 -16 -9 -16 -118z m125 57 c36 -35 35 -96 -1 -124 -15
-12 -41 -21 -58 -21 l-31 0 0 85 0 85 33 0 c22 0 41 -8 57 -25z"/>
<path d="M480 1498 c-49 -33 -69 -91 -49 -144 29 -78 122 -107 190 -61 45 30
61 63 56 116 -7 62 -49 102 -114 108 -39 4 -55 0 -83 -19z m141 -44 c54 -58
11 -144 -72 -144 -107 0 -123 147 -19 169 45 9 63 5 91 -25z"/>
<path d="M690 1400 l0 -120 55 0 c44 0 53 3 49 15 -4 9 -19 15 -35 15 l-29 0
0 105 c0 98 -1 105 -20 105 -19 0 -20 -7 -20 -120z"/>
<path d="M829 1497 c-23 -15 -38 -37 -47 -65 -13 -38 -12 -46 8 -86 31 -66
102 -93 165 -64 46 21 31 37 -30 31 -49 -5 -59 -3 -80 17 -19 18 -25 34 -25
65 0 70 54 103 133 81 36 -11 38 16 2 32 -40 18 -89 14 -126 -11z"/>
<path d="M990 1398 l0 -116 60 -4 c52 -3 60 -1 60 15 0 13 -9 17 -43 17 l-44
0 3 38 c2 37 2 37 43 35 35 -1 41 1 41 18 0 16 -7 19 -44 19 -43 0 -44 1 -42
32 2 32 3 32 44 30 36 -3 42 -1 42 16 0 18 -7 20 -60 18 l-60 -1 0 -117z"/>
<path d="M1372 1500 c-102 -63 -50 -230 72 -230 53 0 84 19 106 65 30 62 28
65 -40 65 -47 0 -60 -3 -60 -15 0 -11 11 -15 40 -15 39 0 39 -1 28 -25 -20
-45 -96 -51 -137 -11 -47 48 -22 134 45 150 26 7 94 -17 94 -33 0 -6 7 -8 15
-5 45 18 -23 74 -90 74 -22 0 -54 -9 -73 -20z"/>
<path d="M1600 1413 c-23 -59 -47 -114 -52 -120 -8 -10 -4 -13 16 -13 21 0 28
6 33 30 5 28 8 30 53 30 43 0 49 -3 60 -30 8 -18 20 -30 31 -30 11 0 19 3 18
8 -1 21 -96 226 -105 229 -6 2 -30 -45 -54 -104z m80 -30 c0 -8 -12 -13 -30
-13 -19 0 -28 4 -25 13 2 6 10 26 16 42 l11 30 14 -30 c7 -16 13 -36 14 -42z"/>
<path d="M1770 1398 l0 -118 63 0 c49 0 68 4 80 18 24 26 22 78 -4 95 -13 9
-16 17 -10 22 15 9 14 70 -1 83 -7 5 -39 12 -70 14 l-58 5 0 -119z m104 66 c9
-22 -3 -42 -29 -47 -30 -5 -35 -1 -35 33 0 15 2 29 5 32 10 9 54 -4 59 -18z
m14 -98 c24 -23 -2 -56 -43 -56 -34 0 -35 1 -35 41 0 41 0 41 32 35 18 -4 39
-13 46 -20z"/>
<path d="M1950 1401 l0 -121 60 0 c47 0 64 4 80 20 25 25 26 64 0 90 -11 11
-15 22 -10 25 16 10 12 62 -6 79 -9 9 -32 16 -54 16 -21 0 -45 3 -54 6 -14 5
-16 -9 -16 -115z m98 51 c3 -16 -4 -25 -23 -32 -36 -14 -35 -15 -35 29 0 38 1
39 28 32 17 -5 28 -15 30 -29z m-3 -72 c21 -8 26 -16 23 -38 -3 -23 -8 -27
-40 -30 l-38 -3 0 40 c0 44 8 49 55 31z"/>
<path d="M2186 1488 c-80 -191 -85 -208 -65 -208 12 0 24 12 32 33 13 30 17
32 58 31 40 -1 45 -4 53 -33 7 -23 15 -31 32 -31 22 0 22 2 -25 117 -27 64
-53 119 -60 121 -6 2 -18 -11 -25 -30z m39 -74 c19 -47 20 -44 -16 -44 -24 0
-30 3 -25 16 3 9 9 27 12 40 8 32 11 31 29 -12z"/>
<path d="M2330 1400 c0 -116 1 -120 21 -120 21 0 22 3 16 87 l-5 86 80 -86
c44 -48 86 -87 94 -87 11 0 14 23 14 121 0 108 -2 120 -17 117 -15 -3 -17 -15
-14 -93 l3 -90 -87 93 c-48 50 -91 92 -96 92 -5 0 -9 -54 -9 -120z"/>
<path d="M2654 1503 c-4 -10 -26 -64 -50 -120 -41 -101 -42 -103 -19 -103 16
0 24 8 31 31 8 29 13 32 53 33 40 1 45 -2 57 -30 13 -30 55 -54 53 -31 -1 26
-95 231 -107 235 -6 2 -15 -5 -18 -15z m46 -120 c0 -8 -12 -13 -30 -13 -35 0
-34 -3 -14 46 l17 39 13 -30 c7 -16 13 -36 14 -42z"/>
<path d="M1185 1390 c-3 -6 -3 -19 0 -30 4 -11 2 -20 -4 -20 -17 0 -13 -46 4
-60 12 -10 21 -10 40 -2 15 7 25 8 25 2 0 -6 7 -10 15 -10 17 0 20 16 5 25 -5
3 -6 13 -3 22 5 12 2 15 -10 10 -21 -8 -32 10 -18 27 6 7 9 21 5 30 -7 18 -49
22 -59 6z"/>
<path d="M1024 1218 c-11 -21 -15 -47 -12 -80 3 -31 1 -48 -6 -48 -6 0 6 -17
27 -36 21 -20 41 -34 44 -31 6 7 -22 61 -41 76 -14 12 -13 17 4 52 21 40 27
99 10 99 -5 0 -17 -14 -26 -32z"/>
<path d="M1940 1217 c0 -18 9 -51 20 -72 11 -22 16 -41 11 -43 -15 -5 -54 -72
-47 -79 3 -4 22 9 42 28 19 18 31 35 27 36 -5 2 -6 24 -4 50 2 32 -2 58 -14
80 -23 42 -35 42 -35 0z"/>
<path d="M951 1213 c-1 -7 -8 -13 -17 -13 -12 0 -7 -12 20 -45 41 -49 40 -56
-2 -25 -29 22 -92 38 -92 24 1 -46 119 -88 134 -48 3 9 -5 39 -18 68 -13 28
-25 45 -25 39z"/>
<path d="M2031 1191 c-7 -13 -17 -37 -22 -53 -7 -27 -7 -28 9 -16 27 21 51 52
52 66 0 7 -4 11 -9 8 -5 -4 -11 0 -13 6 -3 8 -10 4 -17 -11z"/>
<path d="M1095 1146 c-17 -41 -13 -126 5 -126 22 0 38 121 20 150 -7 12 -13 6
-25 -24z"/>
<path d="M1876 1154 c-14 -36 4 -134 24 -134 15 0 22 79 10 115 -12 38 -24 44
-34 19z"/>
<path d="M2054 1131 c-47 -29 -51 -41 -12 -41 34 0 98 32 98 50 0 17 -53 11
-86 -9z"/>
<path d="M1181 1112 c-14 -26 -14 -107 -1 -133 7 -13 7 -19 0 -19 -5 0 -10 4
-10 9 0 5 -11 16 -25 25 -22 14 -28 15 -39 3 -12 -12 -8 -17 31 -36 42 -20 48
-21 62 -7 21 22 27 135 8 160 -14 19 -15 19 -26 -2z"/>
<path d="M1790 1110 c-17 -31 -8 -136 12 -157 15 -14 20 -14 62 7 41 19 44 23
30 37 -13 14 -17 13 -37 -3 -12 -11 -28 -26 -35 -34 -12 -13 -13 -12 -5 5 12
30 10 142 -4 156 -8 8 -14 6 -23 -11z"/>
<path d="M1270 1021 c0 -34 6 -56 21 -75 27 -35 18 -44 -17 -17 -32 25 -50 27
-58 6 -7 -20 33 -36 80 -33 38 2 41 8 18 44 -11 16 -15 36 -11 57 5 30 -10 67
-27 67 -3 0 -6 -22 -6 -49z"/>
<path d="M1706 1048 c-11 -15 -12 -26 -6 -32 16 -16 12 -51 -10 -79 -26 -33
-26 -45 1 -21 27 24 49 74 49 113 0 39 -15 47 -34 19z"/>
<path d="M942 1028 c7 -20 49 -38 90 -38 51 0 56 16 12 35 -45 19 -107 20
-102 3z"/>
<path d="M1958 1024 c-46 -19 -48 -30 -8 -38 35 -7 113 21 107 38 -6 17 -58
17 -99 0z"/>
<path d="M1331 1002 c-7 -13 -8 -29 -2 -45 10 -27 61 -72 91 -82 11 -3 20 -11
20 -16 0 -13 -2 -12 -56 18 -27 14 -46 23 -42 18 4 -4 3 -14 -2 -20 -8 -10 -2
-16 21 -24 18 -6 40 -11 50 -11 11 0 19 -3 19 -7 0 -5 29 -8 65 -8 55 0 65 3
65 17 0 10 16 26 38 37 51 26 85 65 85 97 0 76 -112 41 -160 -49 -23 -44 -10
-42 40 9 28 28 53 44 64 42 30 -6 20 -30 -25 -65 -37 -28 -52 -33 -95 -33 -43
0 -60 6 -99 35 -52 38 -62 65 -24 65 15 0 38 -16 66 -46 23 -25 43 -44 45 -42
2 2 -3 17 -11 34 -36 75 -129 121 -153 76z"/>
<path d="M1023 949 c-18 -5 -33 -12 -33 -15 0 -11 71 -34 102 -34 18 1 47 7
63 14 33 15 30 17 -40 35 -46 12 -49 12 -92 0z"/>
<path d="M1734 931 c-50 -30 -49 -39 3 -30 54 11 55 11 47 33 -8 20 -12 20
-50 -3z"/>
<path d="M1850 935 l-35 -13 30 -12 c59 -23 188 3 145 30 -21 14 -99 11 -140
-5z"/>
<path d="M1188 876 c-49 -26 -51 -28 -37 -37 25 -15 89 -10 130 12 23 11 39
23 36 25 -13 13 -104 13 -129 0z"/>
<path d="M1613 874 c-42 -18 -51 -34 -19 -34 41 0 76 17 70 35 -7 18 -9 18
-51 -1z"/>
<path d="M1680 876 c0 -10 67 -44 90 -46 50 -4 90 0 90 10 0 20 -60 40 -120
40 -33 0 -60 -2 -60 -4z"/>
<path d="M1445 778 c-15 -23 -39 -55 -53 -70 -23 -25 -23 -27 -3 -21 27 7 79
66 87 99 11 42 -3 38 -31 -8z"/>
<path d="M1520 800 c0 -22 30 -68 60 -94 48 -40 57 -31 16 15 -20 22 -41 51
-46 65 -9 24 -30 34 -30 14z"/>
</g>
</svg>
