<?xml version="1.0" standalone="no"?>
<!DOCTYPE svg PUBLIC "-//W3C//DTD SVG 20010904//EN"
 "http://www.w3.org/TR/2001/REC-SVG-20010904/DTD/svg10.dtd">
<svg version="1.0" xmlns="http://www.w3.org/2000/svg"
 width="500.000000pt" height="500.000000pt" viewBox="0 0 500.000000 500.000000"
 preserveAspectRatio="xMidYMid meet">
<metadata>
Created by potrace 1.16, written by Peter Selinger 2001-2019
</metadata>
<g transform="translate(0.000000,500.000000) scale(0.100000,-0.100000)"
fill="#000000" stroke="none">
<path d="M120 3256 l0 -219 109 5 c124 6 154 18 205 81 27 34 31 48 34 112 4
79 -7 129 -39 170 -37 46 -75 59 -197 65 l-112 5 0 -219z m210 141 c43 -22 70
-74 70 -134 0 -67 -23 -119 -61 -138 -15 -8 -55 -15 -89 -15 l-60 0 0 150 0
150 58 0 c31 0 68 -6 82 -13z"/>
<path d="M635 3463 c-89 -46 -145 -147 -131 -235 34 -210 294 -267 414 -91 34
50 42 144 18 208 -19 48 -71 100 -122 121 -44 19 -142 17 -179 -3z m173 -70
c45 -34 65 -70 69 -125 5 -64 -17 -111 -68 -146 -29 -20 -43 -23 -93 -20 -52
4 -63 8 -92 40 -76 84 -59 207 35 259 44 24 111 20 149 -8z"/>
<path d="M1285 3461 c-80 -37 -125 -111 -125 -203 0 -54 26 -126 58 -161 53
-59 178 -83 255 -49 43 19 47 24 47 56 0 42 -6 43 -55 15 -50 -30 -143 -24
-181 12 -56 51 -69 132 -33 207 40 81 149 105 236 51 l34 -21 -3 38 c-3 33 -8
42 -38 56 -47 24 -143 23 -195 -1z"/>
<path d="M2310 3469 c-87 -35 -134 -110 -135 -215 0 -61 4 -77 30 -120 35 -55
88 -90 153 -100 134 -20 232 56 232 181 l0 45 -86 0 -85 0 3 -27 c3 -26 7 -28
51 -31 42 -3 47 -6 47 -27 0 -28 -48 -71 -91 -80 -45 -10 -115 13 -144 47 -54
64 -55 164 -3 224 51 58 143 69 201 24 25 -20 25 -20 48 -1 l24 19 -20 22
c-11 13 -34 29 -52 36 -37 16 -136 17 -173 3z"/>
<path d="M990 3255 l0 -215 96 0 95 0 -3 33 c-3 34 -1 33 -87 36 l-40 1 2 180
2 180 -32 0 -33 0 0 -215z"/>
<path d="M1543 3258 l2 -213 118 -3 117 -3 0 36 0 35 -85 0 -85 0 0 65 0 65
85 0 85 0 0 35 0 35 -85 0 -85 0 0 50 0 50 85 0 85 0 0 30 0 30 -119 0 -120 0
2 -212z"/>
<path d="M2771 3428 c-10 -24 -53 -117 -95 -207 -42 -90 -76 -168 -76 -172 0
-5 15 -9 34 -9 32 0 36 4 57 55 l23 55 86 0 86 0 23 -55 c21 -51 25 -55 57
-55 19 0 34 3 34 8 -2 19 -189 417 -199 420 -6 2 -19 -16 -30 -40z"/>
<path d="M3030 3255 l0 -215 78 0 c105 0 148 14 172 53 30 49 26 109 -9 149
-29 33 -29 33 -10 57 12 15 19 39 19 68 0 36 -6 50 -29 74 -28 28 -33 29 -125
29 l-96 0 0 -215z m187 -41 c7 -10 13 -30 13 -44 0 -44 -21 -62 -78 -68 l-52
-5 0 73 0 73 52 -5 c34 -4 56 -12 65 -24z"/>
<path d="M3360 3255 l0 -215 78 0 c143 0 192 33 192 129 0 36 -6 49 -32 75
l-33 31 24 23 c20 21 23 31 18 75 -3 39 -11 56 -31 74 -24 21 -37 23 -122 23
l-94 0 0 -215z m163 -26 c29 -16 37 -28 37 -61 0 -40 -35 -68 -87 -68 l-43 0
0 70 0 70 36 0 c19 0 45 -5 57 -11z"/>
<path d="M3735 3269 c-49 -110 -91 -206 -93 -214 -3 -11 6 -15 30 -15 30 0 35
5 57 55 l23 55 85 0 84 0 24 -55 c23 -52 27 -55 60 -55 l35 0 -13 33 c-67 157
-182 397 -191 397 -6 -1 -51 -91 -101 -201z"/>
<path d="M4070 3255 l0 -215 30 0 30 0 0 145 c0 80 1 145 3 145 1 0 70 -65
152 -145 83 -79 153 -145 158 -145 4 0 7 97 7 215 l0 215 -35 0 -35 0 0 -142
0 -142 -143 142 c-79 78 -149 142 -155 142 -9 0 -12 -57 -12 -215z"/>
<path d="M4643 3413 c-14 -32 -57 -125 -95 -208 -37 -82 -68 -153 -68 -157 0
-4 15 -8 34 -8 31 0 35 4 56 55 l22 55 87 0 87 0 23 -55 c21 -51 25 -55 57
-55 19 0 34 2 34 5 0 16 -190 420 -199 423 -6 2 -23 -23 -38 -55z"/>
<path d="M1922 3228 c-15 -15 -16 -55 0 -64 8 -5 7 -10 -4 -18 -8 -6 -20 -21
-27 -34 -25 -47 34 -95 90 -74 14 6 38 8 55 5 28 -6 29 -5 11 14 -16 18 -16
21 -2 33 11 9 13 16 6 23 -7 7 -15 6 -24 -1 -11 -9 -19 -7 -36 11 l-21 24 20
18 c36 33 19 75 -30 75 -14 0 -31 -5 -38 -12z"/>
<path d="M1673 2803 c-10 -3 -13 -42 -13 -145 0 -139 0 -139 23 -136 21 3 22
8 26 103 l3 100 27 -100 c24 -93 28 -100 53 -103 29 -3 26 -8 59 121 20 83 24
81 29 -18 5 -92 7 -100 25 -100 19 0 20 8 23 137 2 131 2 137 -18 143 -51 16
-66 1 -92 -97 l-25 -93 -22 85 c-13 47 -28 91 -33 98 -10 12 -42 15 -65 5z"/>
<path d="M2025 2798 c-3 -8 -4 -72 -3 -144 l3 -129 25 0 25 0 0 140 c0 138 0
140 -23 143 -12 2 -24 -3 -27 -10z"/>
<path d="M2177 2803 c-4 -3 -7 -66 -7 -139 0 -155 -7 -147 120 -142 67 3 75 5
75 23 0 18 -8 20 -67 23 l-68 3 0 104 c0 57 -3 110 -6 119 -6 16 -35 22 -47 9z"/>
<path d="M2510 2791 c-28 -53 -97 -246 -93 -258 10 -26 47 -10 57 25 9 31 10
32 68 32 58 0 59 -1 74 -35 15 -36 49 -49 60 -22 2 7 -19 71 -48 142 -48 118
-56 130 -80 133 -19 2 -30 -3 -38 -17z"/>
<path d="M2754 2797 c-2 -7 -3 -71 -2 -143 3 -121 4 -129 23 -129 18 0 20 8
25 94 l5 95 64 -97 c49 -75 69 -97 86 -97 31 0 35 15 35 145 0 127 -4 145 -31
145 -22 0 -28 -21 -31 -115 l-3 -70 -63 93 c-44 65 -68 92 -83 92 -11 0 -22
-6 -25 -13z"/>
<path d="M3129 2794 c-41 -26 -62 -70 -62 -129 0 -93 50 -145 141 -145 89 0
138 63 130 166 -4 45 -10 61 -36 87 -26 26 -40 31 -89 34 -42 3 -65 -1 -84
-13z m106 -38 c40 -17 55 -59 44 -119 -9 -51 -30 -71 -75 -71 -104 0 -109 180
-6 203 1 1 18 -5 37 -13z"/>
<path d="M2532 2264 c-30 -8 -61 -18 -69 -23 -9 -5 -34 -3 -61 5 -30 10 -100
14 -214 14 l-168 0 2 -362 3 -363 165 1 c91 1 184 7 208 13 37 11 51 9 103 -8
80 -28 199 -28 272 -1 122 46 206 181 207 333 l0 47 -150 0 -150 0 0 -42 c0
-24 -3 -53 -6 -65 -6 -22 -4 -23 70 -23 75 0 76 0 76 -26 0 -36 -56 -90 -110
-104 -38 -10 -105 -9 -116 2 -2 2 8 26 22 54 53 108 53 258 -2 366 -14 28 -23
52 -20 55 8 8 76 8 118 0 21 -5 58 -24 83 -43 49 -37 49 -37 108 9 l38 30 -28
29 c-97 103 -238 141 -381 102z m-215 -146 c-57 -128 -59 -140 -55 -237 3 -79
9 -105 31 -149 15 -30 27 -56 27 -58 0 -2 -31 -4 -70 -4 l-70 0 0 230 0 230
71 0 c53 0 70 -3 66 -12z m162 -110 c26 -84 20 -208 -11 -245 -35 -42 -65 166
-35 240 20 46 32 47 46 5z"/>
</g>
</svg>
